<mxfile host="app.diagrams.net" modified="2022-08-05T17:34:26.952Z" agent="5.0 (Windows NT 10.0; Win64; x64) AppleWebKit/537.36 (KHTML, like Gecko) Chrome/103.0.5060.134 Safari/537.36 Edg/103.0.1264.77" etag="BJ958k6XrzAo5U-Lhgfj" version="20.2.3" type="github">
  <diagram id="zN9layMrW8ZE2Ge-d0zk" name="Page-1">
    <mxGraphModel dx="1221" dy="681" grid="1" gridSize="10" guides="1" tooltips="1" connect="1" arrows="1" fold="1" page="1" pageScale="1" pageWidth="850" pageHeight="1100" math="0" shadow="0">
      <root>
        <mxCell id="0" />
        <mxCell id="1" parent="0" />
        <mxCell id="B8tICJD2nGcjvCdbVtIU-51" value="" style="shape=cylinder3;whiteSpace=wrap;html=1;boundedLbl=1;backgroundOutline=1;size=15;" vertex="1" parent="1">
          <mxGeometry x="640" y="80" width="230" height="200" as="geometry" />
        </mxCell>
        <mxCell id="B8tICJD2nGcjvCdbVtIU-1" value="" style="whiteSpace=wrap;html=1;aspect=fixed;" vertex="1" parent="1">
          <mxGeometry x="40" y="80" width="200" height="200" as="geometry" />
        </mxCell>
        <mxCell id="B8tICJD2nGcjvCdbVtIU-3" value="" style="rounded=0;whiteSpace=wrap;html=1;" vertex="1" parent="1">
          <mxGeometry x="320" y="80" width="240" height="360" as="geometry" />
        </mxCell>
        <mxCell id="B8tICJD2nGcjvCdbVtIU-5" value="Client" style="rounded=0;whiteSpace=wrap;html=1;" vertex="1" parent="1">
          <mxGeometry x="80" y="70" width="120" height="30" as="geometry" />
        </mxCell>
        <mxCell id="B8tICJD2nGcjvCdbVtIU-6" value="Docker_&lt;span style=&quot;color: rgba(0, 0, 0, 0); font-family: monospace; font-size: 0px; text-align: start;&quot;&gt;%3CmxGraphModel%3E%3Croot%3E%3CmxCell%20id%3D%220%22%2F%3E%3CmxCell%20id%3D%221%22%20parent%3D%220%22%2F%3E%3CmxCell%20id%3D%222%22%20value%3D%22Client%22%20style%3D%22rounded%3D0%3BwhiteSpace%3Dwrap%3Bhtml%3D1%3B%22%20vertex%3D%221%22%20parent%3D%221%22%3E%3CmxGeometry%20x%3D%2250%22%20y%3D%2270%22%20width%3D%22120%22%20height%3D%2230%22%20as%3D%22geometry%22%2F%3E%3C%2FmxCell%3E%3C%2Froot%3E%3C%2FmxGraphModel%3E&lt;/span&gt;Host" style="rounded=0;whiteSpace=wrap;html=1;" vertex="1" parent="1">
          <mxGeometry x="380" y="70" width="120" height="30" as="geometry" />
        </mxCell>
        <mxCell id="B8tICJD2nGcjvCdbVtIU-7" value="Registry" style="rounded=0;whiteSpace=wrap;html=1;" vertex="1" parent="1">
          <mxGeometry x="695" y="70" width="120" height="30" as="geometry" />
        </mxCell>
        <mxCell id="B8tICJD2nGcjvCdbVtIU-9" value="Docker Build" style="rounded=0;whiteSpace=wrap;html=1;" vertex="1" parent="1">
          <mxGeometry x="80" y="130" width="120" height="30" as="geometry" />
        </mxCell>
        <mxCell id="B8tICJD2nGcjvCdbVtIU-10" value="Docker Build" style="rounded=0;whiteSpace=wrap;html=1;" vertex="1" parent="1">
          <mxGeometry x="80" y="165" width="120" height="30" as="geometry" />
        </mxCell>
        <mxCell id="B8tICJD2nGcjvCdbVtIU-11" value="Docker Build" style="rounded=0;whiteSpace=wrap;html=1;" vertex="1" parent="1">
          <mxGeometry x="80" y="200" width="120" height="30" as="geometry" />
        </mxCell>
        <mxCell id="B8tICJD2nGcjvCdbVtIU-12" value="Docker daemon" style="rounded=0;whiteSpace=wrap;html=1;" vertex="1" parent="1">
          <mxGeometry x="350" y="130" width="180" height="30" as="geometry" />
        </mxCell>
        <mxCell id="B8tICJD2nGcjvCdbVtIU-15" value="" style="rounded=1;whiteSpace=wrap;html=1;" vertex="1" parent="1">
          <mxGeometry x="327.5" y="210" width="105" height="220" as="geometry" />
        </mxCell>
        <mxCell id="B8tICJD2nGcjvCdbVtIU-13" value="Container" style="rounded=0;whiteSpace=wrap;html=1;" vertex="1" parent="1">
          <mxGeometry x="335" y="195" width="90" height="30" as="geometry" />
        </mxCell>
        <mxCell id="B8tICJD2nGcjvCdbVtIU-17" value="" style="rounded=1;whiteSpace=wrap;html=1;" vertex="1" parent="1">
          <mxGeometry x="450" y="210" width="105" height="150" as="geometry" />
        </mxCell>
        <mxCell id="B8tICJD2nGcjvCdbVtIU-18" value="Images" style="rounded=0;whiteSpace=wrap;html=1;" vertex="1" parent="1">
          <mxGeometry x="457.5" y="195" width="90" height="30" as="geometry" />
        </mxCell>
        <mxCell id="B8tICJD2nGcjvCdbVtIU-20" value="Container 1" style="rounded=1;whiteSpace=wrap;html=1;" vertex="1" parent="1">
          <mxGeometry x="345" y="250" width="70" height="20" as="geometry" />
        </mxCell>
        <mxCell id="B8tICJD2nGcjvCdbVtIU-21" value="Container 2" style="rounded=1;whiteSpace=wrap;html=1;" vertex="1" parent="1">
          <mxGeometry x="345" y="290" width="70" height="20" as="geometry" />
        </mxCell>
        <mxCell id="B8tICJD2nGcjvCdbVtIU-22" value="Container 3" style="rounded=1;whiteSpace=wrap;html=1;" vertex="1" parent="1">
          <mxGeometry x="345" y="330" width="70" height="20" as="geometry" />
        </mxCell>
        <mxCell id="B8tICJD2nGcjvCdbVtIU-23" value="Container 4" style="rounded=1;whiteSpace=wrap;html=1;" vertex="1" parent="1">
          <mxGeometry x="345" y="370" width="70" height="20" as="geometry" />
        </mxCell>
        <mxCell id="B8tICJD2nGcjvCdbVtIU-24" value="Ubuntu Image" style="rounded=1;whiteSpace=wrap;html=1;" vertex="1" parent="1">
          <mxGeometry x="467.5" y="250" width="70" height="30" as="geometry" />
        </mxCell>
        <mxCell id="B8tICJD2nGcjvCdbVtIU-25" value="CentOS&lt;br&gt;Image" style="rounded=1;whiteSpace=wrap;html=1;" vertex="1" parent="1">
          <mxGeometry x="467.5" y="290" width="70" height="30" as="geometry" />
        </mxCell>
        <mxCell id="B8tICJD2nGcjvCdbVtIU-26" value="Ubuntu db" style="rounded=1;whiteSpace=wrap;html=1;" vertex="1" parent="1">
          <mxGeometry x="670" y="120" width="70" height="50" as="geometry" />
        </mxCell>
        <mxCell id="B8tICJD2nGcjvCdbVtIU-27" value="CentOS&lt;br&gt;db" style="rounded=1;whiteSpace=wrap;html=1;" vertex="1" parent="1">
          <mxGeometry x="780" y="120" width="70" height="50" as="geometry" />
        </mxCell>
        <mxCell id="B8tICJD2nGcjvCdbVtIU-28" value="NGINX&lt;br&gt;Engine" style="rounded=1;whiteSpace=wrap;html=1;" vertex="1" parent="1">
          <mxGeometry x="670" y="195" width="70" height="50" as="geometry" />
        </mxCell>
        <mxCell id="B8tICJD2nGcjvCdbVtIU-29" value="SaltStack&lt;br&gt;db" style="rounded=1;whiteSpace=wrap;html=1;" vertex="1" parent="1">
          <mxGeometry x="780" y="195" width="70" height="50" as="geometry" />
        </mxCell>
        <mxCell id="B8tICJD2nGcjvCdbVtIU-30" value="" style="endArrow=classic;html=1;rounded=0;exitX=1;exitY=0.5;exitDx=0;exitDy=0;entryX=0;entryY=0.5;entryDx=0;entryDy=0;" edge="1" parent="1" source="B8tICJD2nGcjvCdbVtIU-11" target="B8tICJD2nGcjvCdbVtIU-12">
          <mxGeometry width="50" height="50" relative="1" as="geometry">
            <mxPoint x="240" y="240" as="sourcePoint" />
            <mxPoint x="290" y="190" as="targetPoint" />
          </mxGeometry>
        </mxCell>
        <mxCell id="B8tICJD2nGcjvCdbVtIU-31" value="" style="endArrow=classic;html=1;rounded=0;entryX=0;entryY=0.5;entryDx=0;entryDy=0;exitX=1;exitY=0.5;exitDx=0;exitDy=0;" edge="1" parent="1" source="B8tICJD2nGcjvCdbVtIU-10" target="B8tICJD2nGcjvCdbVtIU-12">
          <mxGeometry width="50" height="50" relative="1" as="geometry">
            <mxPoint x="390" y="340" as="sourcePoint" />
            <mxPoint x="440" y="290" as="targetPoint" />
          </mxGeometry>
        </mxCell>
        <mxCell id="B8tICJD2nGcjvCdbVtIU-32" value="" style="endArrow=classic;html=1;rounded=0;exitX=1;exitY=0.5;exitDx=0;exitDy=0;entryX=0;entryY=0.5;entryDx=0;entryDy=0;" edge="1" parent="1" source="B8tICJD2nGcjvCdbVtIU-9" target="B8tICJD2nGcjvCdbVtIU-12">
          <mxGeometry width="50" height="50" relative="1" as="geometry">
            <mxPoint x="210" y="190" as="sourcePoint" />
            <mxPoint x="300" y="100" as="targetPoint" />
          </mxGeometry>
        </mxCell>
        <mxCell id="B8tICJD2nGcjvCdbVtIU-34" value="" style="endArrow=classic;html=1;rounded=0;entryX=1;entryY=0.5;entryDx=0;entryDy=0;exitX=0;exitY=0.5;exitDx=0;exitDy=0;" edge="1" parent="1" source="B8tICJD2nGcjvCdbVtIU-24" target="B8tICJD2nGcjvCdbVtIU-20">
          <mxGeometry width="50" height="50" relative="1" as="geometry">
            <mxPoint x="390" y="320" as="sourcePoint" />
            <mxPoint x="440" y="270" as="targetPoint" />
          </mxGeometry>
        </mxCell>
        <mxCell id="B8tICJD2nGcjvCdbVtIU-35" value="" style="endArrow=classic;html=1;rounded=0;entryX=1;entryY=0.5;entryDx=0;entryDy=0;exitX=0;exitY=0.5;exitDx=0;exitDy=0;" edge="1" parent="1" source="B8tICJD2nGcjvCdbVtIU-25" target="B8tICJD2nGcjvCdbVtIU-23">
          <mxGeometry width="50" height="50" relative="1" as="geometry">
            <mxPoint x="430" y="340" as="sourcePoint" />
            <mxPoint x="480" y="290" as="targetPoint" />
          </mxGeometry>
        </mxCell>
        <mxCell id="B8tICJD2nGcjvCdbVtIU-36" value="" style="endArrow=classic;html=1;rounded=0;entryX=1;entryY=0.5;entryDx=0;entryDy=0;exitX=0;exitY=0.5;exitDx=0;exitDy=0;" edge="1" parent="1" source="B8tICJD2nGcjvCdbVtIU-25" target="B8tICJD2nGcjvCdbVtIU-22">
          <mxGeometry width="50" height="50" relative="1" as="geometry">
            <mxPoint x="390" y="320" as="sourcePoint" />
            <mxPoint x="440" y="270" as="targetPoint" />
          </mxGeometry>
        </mxCell>
        <mxCell id="B8tICJD2nGcjvCdbVtIU-37" value="" style="endArrow=classic;html=1;rounded=0;entryX=1;entryY=0.5;entryDx=0;entryDy=0;exitX=0;exitY=0.5;exitDx=0;exitDy=0;" edge="1" parent="1" source="B8tICJD2nGcjvCdbVtIU-24" target="B8tICJD2nGcjvCdbVtIU-21">
          <mxGeometry width="50" height="50" relative="1" as="geometry">
            <mxPoint x="477.5" y="275" as="sourcePoint" />
            <mxPoint x="425" y="270" as="targetPoint" />
          </mxGeometry>
        </mxCell>
        <mxCell id="B8tICJD2nGcjvCdbVtIU-39" value="" style="endArrow=classic;html=1;rounded=0;entryX=0.5;entryY=0;entryDx=0;entryDy=0;exitX=0.169;exitY=0.995;exitDx=0;exitDy=0;exitPerimeter=0;" edge="1" parent="1" source="B8tICJD2nGcjvCdbVtIU-12" target="B8tICJD2nGcjvCdbVtIU-13">
          <mxGeometry width="50" height="50" relative="1" as="geometry">
            <mxPoint x="370" y="230" as="sourcePoint" />
            <mxPoint x="420" y="180" as="targetPoint" />
          </mxGeometry>
        </mxCell>
        <mxCell id="B8tICJD2nGcjvCdbVtIU-41" value="" style="endArrow=none;html=1;rounded=0;exitX=1;exitY=0.5;exitDx=0;exitDy=0;entryX=-0.005;entryY=0.33;entryDx=0;entryDy=0;entryPerimeter=0;" edge="1" parent="1" source="B8tICJD2nGcjvCdbVtIU-12">
          <mxGeometry width="50" height="50" relative="1" as="geometry">
            <mxPoint x="580" y="240" as="sourcePoint" />
            <mxPoint x="639" y="146.0000000000001" as="targetPoint" />
          </mxGeometry>
        </mxCell>
        <mxCell id="B8tICJD2nGcjvCdbVtIU-42" value="" style="endArrow=classic;html=1;rounded=0;exitX=1;exitY=0.5;exitDx=0;exitDy=0;entryX=0.5;entryY=0;entryDx=0;entryDy=0;" edge="1" parent="1" source="B8tICJD2nGcjvCdbVtIU-12" target="B8tICJD2nGcjvCdbVtIU-18">
          <mxGeometry width="50" height="50" relative="1" as="geometry">
            <mxPoint x="580" y="240" as="sourcePoint" />
            <mxPoint x="630" y="190" as="targetPoint" />
            <Array as="points">
              <mxPoint x="503" y="145" />
            </Array>
          </mxGeometry>
        </mxCell>
        <mxCell id="B8tICJD2nGcjvCdbVtIU-48" value="sync" style="text;html=1;strokeColor=none;fillColor=none;align=center;verticalAlign=middle;whiteSpace=wrap;rounded=0;" vertex="1" parent="1">
          <mxGeometry x="570" y="120" width="60" height="30" as="geometry" />
        </mxCell>
        <mxCell id="B8tICJD2nGcjvCdbVtIU-49" value="Commands" style="text;html=1;strokeColor=none;fillColor=none;align=center;verticalAlign=middle;whiteSpace=wrap;rounded=0;" vertex="1" parent="1">
          <mxGeometry x="250" y="120" width="60" height="30" as="geometry" />
        </mxCell>
        <mxCell id="B8tICJD2nGcjvCdbVtIU-53" value="&lt;h1&gt;Docker Architecture&lt;/h1&gt;" style="text;html=1;strokeColor=none;fillColor=none;spacing=5;spacingTop=-20;whiteSpace=wrap;overflow=hidden;rounded=0;" vertex="1" parent="1">
          <mxGeometry x="60" y="340" width="190" height="120" as="geometry" />
        </mxCell>
        <mxCell id="B8tICJD2nGcjvCdbVtIU-54" value="" style="ellipse;whiteSpace=wrap;html=1;aspect=fixed;" vertex="1" parent="1">
          <mxGeometry x="240" y="600" width="360" height="360" as="geometry" />
        </mxCell>
        <mxCell id="B8tICJD2nGcjvCdbVtIU-55" value="" style="ellipse;whiteSpace=wrap;html=1;aspect=fixed;" vertex="1" parent="1">
          <mxGeometry x="275" y="670" width="290" height="290" as="geometry" />
        </mxCell>
        <mxCell id="B8tICJD2nGcjvCdbVtIU-56" value="" style="ellipse;whiteSpace=wrap;html=1;aspect=fixed;" vertex="1" parent="1">
          <mxGeometry x="307.5" y="735" width="225" height="225" as="geometry" />
        </mxCell>
        <mxCell id="B8tICJD2nGcjvCdbVtIU-57" value="Rest API" style="text;html=1;strokeColor=none;fillColor=none;align=center;verticalAlign=middle;whiteSpace=wrap;rounded=0;" vertex="1" parent="1">
          <mxGeometry x="390" y="690" width="60" height="30" as="geometry" />
        </mxCell>
        <mxCell id="B8tICJD2nGcjvCdbVtIU-58" value="Docker CLI" style="text;strokeColor=none;fillColor=none;align=center;verticalAlign=middle;spacingLeft=4;spacingRight=4;overflow=hidden;points=[[0,0.5],[1,0.5]];portConstraint=eastwest;rotatable=0;" vertex="1" parent="1">
          <mxGeometry x="380" y="620" width="80" height="30" as="geometry" />
        </mxCell>
        <mxCell id="B8tICJD2nGcjvCdbVtIU-60" value="Server" style="text;html=1;strokeColor=none;fillColor=none;align=center;verticalAlign=middle;whiteSpace=wrap;rounded=0;" vertex="1" parent="1">
          <mxGeometry x="390" y="765" width="60" height="30" as="geometry" />
        </mxCell>
        <mxCell id="B8tICJD2nGcjvCdbVtIU-61" value="&lt;h1&gt;Docker&amp;nbsp; &amp;nbsp; Engine&lt;/h1&gt;" style="text;html=1;strokeColor=none;fillColor=none;spacing=5;spacingTop=-20;whiteSpace=wrap;overflow=hidden;rounded=0;" vertex="1" parent="1">
          <mxGeometry x="60" y="700" width="190" height="120" as="geometry" />
        </mxCell>
      </root>
    </mxGraphModel>
  </diagram>
</mxfile>
